<?xml version="1.0" encoding="UTF-8"?>
<svg width="53px" height="53px" viewBox="0 0 53 53" version="1.1" xmlns="http://www.w3.org/2000/svg" xmlns:xlink="http://www.w3.org/1999/xlink">
    <!-- Generator: Sketch 54.1 (76490) - https://sketchapp.com -->
    <title>instagram-logo</title>
    <desc>Created with Sketch.</desc>
    <g id="Page-1" stroke="none" stroke-width="1" fill="none" fill-rule="evenodd">
        <g id="Desktop-HD" transform="translate(-586.000000, -1577.000000)" fill="#000000" fill-rule="nonzero">
            <g id="Gallery" transform="translate(0.000000, 1540.000000)">
                <g id="gallery-header" transform="translate(586.000000, 32.000000)">
                    <g id="instagram-logo" transform="translate(0.000000, 5.000000)">
                        <path d="M26.5059119,12.9114694 C18.9860011,12.9114694 12.9204127,18.9784112 12.9204127,26.5 C12.9204127,34.0215888 18.9860011,40.0885306 26.5059119,40.0885306 C34.0258226,40.0885306 40.091411,34.0215888 40.091411,26.5 C40.091411,18.9784112 34.0258226,12.9114694 26.5059119,12.9114694 Z M26.5059119,35.3343189 C21.6463469,35.3343189 17.6735639,31.3724757 17.6735639,26.5 C17.6735639,21.6275243 21.6345231,17.6656811 26.5059119,17.6656811 C31.3773006,17.6656811 35.3382599,21.6275243 35.3382599,26.5 C35.3382599,31.3724757 31.3654769,35.3343189 26.5059119,35.3343189 L26.5059119,35.3343189 Z M43.8158951,12.3556287 C43.8158951,14.1177619 42.3970441,15.5251032 40.6471277,15.5251032 C38.8853876,15.5251032 37.4783603,14.1059355 37.4783603,12.3556287 C37.4783603,10.6053219 38.8972114,9.18615419 40.6471277,9.18615419 C42.3970441,9.18615419 43.8158951,10.6053219 43.8158951,12.3556287 Z M52.8137758,15.5724088 C52.6127719,11.3267321 51.6432236,7.56593774 48.533575,4.46742162 C45.4357501,1.3689055 41.6757948,0.399140913 37.4310653,0.186265759 C33.0562744,-0.0620885864 19.9437256,-0.0620885864 15.5689347,0.186265759 C11.336029,0.387314515 7.57607362,1.3570791 4.46642499,4.45559522 C1.35677635,7.55411135 0.399051868,11.3149057 0.186224205,15.5605824 C-0.0620747351,19.9363494 -0.0620747351,33.0518242 0.186224205,37.4275912 C0.387228109,41.6732679 1.35677635,45.4340623 4.46642499,48.5325784 C7.57607362,51.6310945 11.3242052,52.6008591 15.5689347,52.8137342 C19.9437256,53.0620886 33.0562744,53.0620886 37.4310653,52.8137342 C41.6757948,52.6126855 45.4357501,51.6429209 48.533575,48.5325784 C51.6313999,45.4340623 52.6009481,41.6732679 52.8137758,37.4275912 C53.0620747,33.0518242 53.0620747,19.9481758 52.8137758,15.5724088 Z M47.162019,42.122671 C46.2397658,44.4406449 44.4543781,46.2264309 42.1250976,47.1607163 C38.6370887,48.5444048 30.3604573,48.225092 26.5059119,48.225092 C22.6513664,48.225092 14.3629113,48.5325784 10.8867262,47.1607163 C8.56926938,46.2382573 6.78388176,44.4524713 5.8498048,42.122671 C4.46642499,38.6338837 4.78566648,30.3554056 4.78566648,26.5 C4.78566648,22.6445944 4.47824875,14.3542899 5.8498048,10.877329 C6.772058,8.55935513 8.55744562,6.77356912 10.8867262,5.83928372 C14.3747351,4.45559522 22.6513664,4.77490795 26.5059119,4.77490795 C30.3604573,4.77490795 38.6489124,4.46742162 42.1250976,5.83928372 C44.4425544,6.76174272 46.227942,8.54752873 47.162019,10.877329 C48.5453988,14.3661163 48.2261573,22.6445944 48.2261573,26.5 C48.2261573,30.3554056 48.5453988,38.6457101 47.162019,42.122671 Z" id="Shape"></path>
                    </g>
                </g>
            </g>
        </g>
    </g>
</svg>